<svg width="112" height="24" viewBox="0 0 112 24" fill="none" xmlns="http://www.w3.org/2000/svg">
<path d="M11.0947 1.92964C11.4545 1.16263 12.5455 1.16263 12.9053 1.92964L15.1868 6.79247C15.3325 7.10313 15.6274 7.31737 15.9679 7.35998L21.2977 8.02708C22.1384 8.1323 22.4755 9.16983 21.8572 9.74909L17.9374 13.4216C17.687 13.6562 17.5744 14.0028 17.6391 14.3398L18.6516 19.615C18.8113 20.447 17.9288 21.0882 17.1868 20.6792L12.4828 18.0861C12.1822 17.9205 11.8178 17.9205 11.5172 18.0861L6.81321 20.6792C6.07124 21.0882 5.18866 20.447 5.34838 19.615L6.36094 14.3398C6.42562 14.0028 6.31299 13.6562 6.06257 13.4216L2.14276 9.74909C1.52449 9.16983 1.8616 8.1323 2.70228 8.02708L8.03211 7.35998C8.37261 7.31736 8.66748 7.10313 8.81323 6.79247L11.0947 1.92964Z" fill="#CC00B8"/>
<path d="M35.7438 2.24595C35.9272 1.86408 36.4726 1.86899 36.6491 2.2541L38.8866 7.13729C39.101 7.60524 39.5404 7.93056 40.0506 7.99908L45.3742 8.71417C45.794 8.77056 45.9579 9.29082 45.6462 9.57766L41.6934 13.2147C41.3147 13.5632 41.141 14.0816 41.2335 14.588L42.1985 19.872C42.2746 20.2887 41.8305 20.6054 41.4613 20.3975L36.7808 17.7622C36.3323 17.5096 35.7856 17.5047 35.3326 17.7491L30.6054 20.2997C30.2326 20.5009 29.7942 20.1763 29.8778 19.761L30.9379 14.4952C31.0395 13.9906 30.8752 13.4692 30.5028 13.1139L26.6162 9.40622C26.3097 9.11381 26.4829 8.59659 26.9037 8.54777L32.2393 7.92871C32.7506 7.86939 33.1958 7.55203 33.4186 7.08802L35.7438 2.24595Z" stroke="#CC00B8" stroke-opacity="0.5"/>
<path d="M56.5473 2.14201C56.7273 1.7585 57.2727 1.7585 57.4527 2.14201L59.7341 7.00484C59.9527 7.47084 60.395 7.79219 60.9058 7.85611L66.2356 8.52321C66.656 8.57582 66.8245 9.09458 66.5154 9.38422L62.5956 13.0567C62.2199 13.4086 62.051 13.9286 62.148 14.4341L63.1606 19.7092C63.2404 20.1252 62.7992 20.4459 62.4282 20.2413L57.7241 17.6482C57.2734 17.3997 56.7266 17.3997 56.2759 17.6482L51.5718 20.2413C51.2008 20.4459 50.7596 20.1252 50.8394 19.7092L51.852 14.4341C51.949 13.9286 51.7801 13.4086 51.4044 13.0567L47.4846 9.38422C47.1755 9.09459 47.344 8.57582 47.7644 8.52321L53.0942 7.85611C53.605 7.79218 54.0473 7.47083 54.2659 7.00484L56.5473 2.14201Z" stroke="#CC00B8" stroke-opacity="0.5"/>
<path d="M78.5473 2.14201C78.7273 1.7585 79.2727 1.7585 79.4527 2.14201L81.7341 7.00484C81.9527 7.47084 82.395 7.79219 82.9058 7.85611L88.2356 8.52321C88.656 8.57582 88.8245 9.09458 88.5154 9.38422L84.5956 13.0567C84.2199 13.4086 84.051 13.9286 84.148 14.4341L85.1606 19.7092C85.2404 20.1252 84.7992 20.4459 84.4282 20.2413L79.7241 17.6482C79.2734 17.3997 78.7266 17.3997 78.2759 17.6482L73.5718 20.2413C73.2008 20.4459 72.7596 20.1252 72.8394 19.7092L73.852 14.4341C73.949 13.9286 73.7801 13.4086 73.4044 13.0567L69.4846 9.38422C69.1755 9.09459 69.344 8.57582 69.7644 8.52321L75.0942 7.85611C75.605 7.79218 76.0473 7.47083 76.2659 7.00484L78.5473 2.14201Z" stroke="#CC00B8" stroke-opacity="0.5"/>
<path d="M99.5473 2.14201C99.7273 1.7585 100.273 1.7585 100.453 2.14201L102.734 7.00484C102.953 7.47084 103.395 7.79219 103.906 7.85611L109.236 8.52321C109.656 8.57582 109.825 9.09458 109.515 9.38422L105.596 13.0567C105.22 13.4086 105.051 13.9286 105.148 14.4341L106.161 19.7092C106.24 20.1252 105.799 20.4459 105.428 20.2413L100.724 17.6482C100.273 17.3997 99.7266 17.3997 99.2759 17.6482L94.5718 20.2413C94.2008 20.4459 93.7596 20.1252 93.8394 19.7092L94.852 14.4341C94.949 13.9286 94.7801 13.4086 94.4044 13.0567L90.4846 9.38422C90.1755 9.09459 90.344 8.57582 90.7644 8.52321L96.0942 7.85611C96.605 7.79218 97.0473 7.47083 97.2659 7.00484L99.5473 2.14201Z" stroke="#CC00B8" stroke-opacity="0.5"/>
</svg>
