<svg width="96" height="96" viewBox="0 0 96 96" fill="none" xmlns="http://www.w3.org/2000/svg">
<path d="M12 68.8C12 67.7333 12.35 66.8333 13.05 66.1C13.75 65.3667 14.6 65 15.6 65C16.1333 65 16.65 65.0833 17.15 65.25C17.65 65.4167 18.1333 65.6667 18.6 66C19.4667 66.5333 20.3333 67 21.2 67.4C22.0667 67.8 23 68 24 68C26.2 68 28.0833 67.2167 29.65 65.65C31.2167 64.0833 32 62.2 32 60C32 57.8 31.2167 55.9167 29.65 54.35C28.0833 52.7833 26.2 52 24 52C23 52 22.0333 52.1667 21.1 52.5C20.1667 52.8333 19.3333 53.3333 18.6 54C18.2 54.3333 17.7333 54.5833 17.2 54.75C16.6667 54.9167 16.1333 55 15.6 55C14.6 55 13.75 54.6333 13.05 53.9C12.35 53.1667 12 52.2667 12 51.2V36C12 34.8667 12.3833 33.9167 13.15 33.15C13.9167 32.3833 14.8667 32 16 32H31C30.6667 31 30.4167 30 30.25 29C30.0833 28 30 27 30 26C30 21 31.75 16.75 35.25 13.25C38.75 9.75 43 8 48 8C53 8 57.25 9.75 60.75 13.25C64.25 16.75 66 21 66 26C66 27 65.9167 28 65.75 29C65.5833 30 65.3333 31 65 32H80C81.1333 32 82.0833 32.3833 82.85 33.15C83.6167 33.9167 84 34.8667 84 36V51.2C84 52.3333 83.6167 53.2833 82.85 54.05C82.0833 54.8167 81.1333 55.2 80 55.2C79.4667 55.2 79 55.0833 78.6 54.85C78.2 54.6167 77.8 54.3333 77.4 54C76.6667 53.3333 75.8333 52.8333 74.9 52.5C73.9667 52.1667 73 52 72 52C69.8 52 67.9167 52.7833 66.35 54.35C64.7833 55.9167 64 57.8 64 60C64 62.2 64.7833 64.0833 66.35 65.65C67.9167 67.2167 69.8 68 72 68C73 68 73.9667 67.8333 74.9 67.5C75.8333 67.1667 76.6667 66.6667 77.4 66C77.7333 65.6667 78.1167 65.3833 78.55 65.15C78.9833 64.9167 79.4667 64.8 80 64.8C81.1333 64.8 82.0833 65.1833 82.85 65.95C83.6167 66.7167 84 67.6667 84 68.8V84C84 85.1333 83.6167 86.0833 82.85 86.85C82.0833 87.6167 81.1333 88 80 88H16C14.8667 88 13.9167 87.6167 13.15 86.85C12.3833 86.0833 12 85.1333 12 84V68.8Z" fill="black"/>
</svg>
