<svg width="78" height="76" viewBox="0 0 78 76" fill="none" xmlns="http://www.w3.org/2000/svg">
<path d="M69.9106 50.0385C70.2338 50.5659 70.3269 51.1954 70.1695 51.7891C70.0122 52.3829 69.6171 52.8926 69.0709 53.2065L40.4082 69.7332C40.043 69.9437 39.6264 70.0571 39.201 70.0617C38.7756 70.0664 38.3566 69.9621 37.9869 69.7596L8.97078 53.8618C8.4257 53.554 8.02851 53.0516 7.86521 52.4634C7.70191 51.8752 7.78564 51.2484 8.09827 50.7189C8.4109 50.1894 8.92727 49.7997 9.53558 49.6341C10.1439 49.4686 10.7952 49.5405 11.3485 49.8344L39.1555 65.065L66.624 49.2318C67.1715 48.9199 67.8247 48.8296 68.4407 48.9808C69.0567 49.132 69.5853 49.5124 69.9106 50.0385ZM66.4725 35.3356L39.004 51.1688L11.197 35.9382C10.6469 35.6816 10.0158 35.6367 9.43229 35.8127C8.84874 35.9887 8.35652 36.3723 8.05583 36.8855C7.75514 37.3987 7.66858 38.0028 7.81376 38.575C7.95894 39.1472 8.32495 39.6444 8.8373 39.9653L37.8534 55.8632C38.2232 56.0657 38.6421 56.1699 39.0675 56.1653C39.4929 56.1607 39.9095 56.0473 40.2747 55.8368L68.9374 39.3101C69.2127 39.1561 69.4536 38.9509 69.6461 38.7064C69.8386 38.462 69.9788 38.1832 70.0586 37.8862C70.1384 37.5893 70.1562 37.28 70.111 36.9764C70.0658 36.6729 69.9585 36.381 69.7953 36.1178C69.632 35.8546 69.4162 35.6253 69.1602 35.4433C68.9042 35.2612 68.6132 35.13 68.3041 35.0572C67.995 34.9844 67.6739 34.9716 67.3595 35.0193C67.045 35.0671 66.7435 35.1746 66.4725 35.3356ZM7.46235 24.0818C7.45888 23.6761 7.56604 23.2766 7.7731 22.9232C7.98016 22.5698 8.27985 22.275 8.64218 22.0682L37.3048 5.54152C37.67 5.331 38.0866 5.21763 38.512 5.213C38.9374 5.20836 39.3564 5.31262 39.7261 5.51513L68.7423 21.413C69.1073 21.613 69.4114 21.9017 69.6245 22.2504C69.8375 22.5992 69.9519 22.9957 69.9563 23.4004C69.9607 23.8052 69.855 24.2041 69.6496 24.5574C69.4443 24.9107 69.1465 25.206 68.7859 25.4139L40.1232 41.9406C39.758 42.1511 39.3414 42.2645 38.916 42.2691C38.4906 42.2737 38.0717 42.1695 37.7019 41.967L8.6858 26.0691C8.31904 25.8703 8.013 25.582 7.79828 25.2333C7.58357 24.8845 7.46773 24.4874 7.46235 24.0818ZM14.6361 24.0036L38.8525 37.2726L62.7739 23.4787L38.5575 10.2097L14.6361 24.0036Z" fill="white"/>
</svg>
