<svg width="58" height="62" viewBox="0 0 58 62" fill="none" xmlns="http://www.w3.org/2000/svg">
<path d="M29.3208 0.740601C13.5002 0.740601 0.6604 14.3711 0.6604 31.1658C0.6604 47.9604 13.5002 61.5909 29.3208 61.5909C45.1413 61.5909 57.9812 47.9604 57.9812 31.1658C57.9812 14.3711 45.1413 0.740601 29.3208 0.740601ZM29.3208 12.9107C34.8522 12.9107 39.3519 17.6874 39.3519 23.5595C39.3519 29.4315 34.8522 34.2083 29.3208 34.2083C23.7893 34.2083 19.2896 29.4315 19.2896 23.5595C19.2896 17.6874 23.7893 12.9107 29.3208 12.9107ZM29.3208 55.5059C23.5027 55.5059 16.6242 53.011 11.7233 46.7434C16.5669 42.7273 22.6716 40.2933 29.3208 40.2933C35.97 40.2933 42.0746 42.7273 46.9183 46.7434C42.0173 53.011 35.1388 55.5059 29.3208 55.5059Z" fill="black" />
</svg>
