<svg width="81" height="76" viewBox="0 0 81 76" fill="none" xmlns="http://www.w3.org/2000/svg">
<ellipse cx="40.5" cy="38" rx="40.5" ry="38" fill="white"/>
<path d="M52.5935 44.1887H50.1544L49.2899 43.4477C52.3156 40.319 54.1372 36.2573 54.1372 31.8388C54.1372 21.9863 45.1527 14 34.0686 14C22.9846 14 14 21.9863 14 31.8388C14 41.6913 22.9846 49.6775 34.0686 49.6775C39.0395 49.6775 43.6089 48.0583 47.1286 45.3688L47.9623 46.1372V48.3053L63.3997 62L68 57.9108L52.5935 44.1887ZM34.0686 44.1887C26.3808 44.1887 20.175 38.6724 20.175 31.8388C20.175 25.0051 26.3808 19.4889 34.0686 19.4889C41.7564 19.4889 47.9623 25.0051 47.9623 31.8388C47.9623 38.6724 41.7564 44.1887 34.0686 44.1887Z" fill="#064E3B"/>
</svg>
