<svg width="22" height="20" viewBox="0 0 22 20" fill="none" xmlns="http://www.w3.org/2000/svg">
<path d="M10.7438 1.24595C10.9271 0.864078 11.4726 0.868993 11.649 1.2541L13.8866 6.13729C14.101 6.60524 14.5404 6.93056 15.0506 6.99908L20.3742 7.71417C20.794 7.77056 20.9579 8.29082 20.6462 8.57766L16.6934 12.2147C16.3146 12.5632 16.141 13.0816 16.2335 13.588L17.1985 18.872C17.2746 19.2887 16.8304 19.6054 16.4613 19.3975L11.7808 16.7622C11.3323 16.5096 10.7856 16.5047 10.3326 16.7491L5.6054 19.2997C5.23259 19.5009 4.79421 19.1763 4.87781 18.761L5.93785 13.4952C6.03943 12.9906 5.87518 12.4692 5.50273 12.1139L1.61616 8.40622C1.30965 8.11381 1.48287 7.59659 1.90367 7.54777L7.23929 6.92871C7.7506 6.86939 8.19577 6.55203 8.41859 6.08802L10.7438 1.24595Z" stroke="#CC00B8" stroke-opacity="0.5"/>
</svg>
