<svg width="22" height="20" viewBox="0 0 22 20" fill="none" xmlns="http://www.w3.org/2000/svg">
<path d="M10.0947 0.92964C10.4545 0.162627 11.5455 0.162627 11.9053 0.92964L14.1868 5.79247C14.3325 6.10313 14.6274 6.31737 14.9679 6.35998L20.2977 7.02708C21.1384 7.1323 21.4755 8.16983 20.8572 8.74909L16.9374 12.4216C16.687 12.6562 16.5744 13.0028 16.6391 13.3398L17.6516 18.615C17.8113 19.447 16.9288 20.0882 16.1868 19.6792L11.4828 17.0861C11.1822 16.9205 10.8178 16.9205 10.5172 17.0861L5.81321 19.6792C5.07124 20.0882 4.18866 19.447 4.34838 18.615L5.36094 13.3398C5.42562 13.0028 5.31299 12.6562 5.06257 12.4216L1.14276 8.74909C0.524489 8.16983 0.861603 7.1323 1.70228 7.02708L7.03211 6.35998C7.37261 6.31736 7.66748 6.10313 7.81323 5.79247L10.0947 0.92964Z" fill="#CC00B8"/>
</svg>
